<?xml version="1.0" encoding="iso-8859-1"?>
<!-- Uploaded to: SVG Repo, www.svgrepo.com, Generator: SVG Repo Mixer Tools -->
<svg height="800px" width="800px" version="1.1" id="Layer_1" xmlns="http://www.w3.org/2000/svg" xmlns:xlink="http://www.w3.org/1999/xlink" 
	 viewBox="0 0 512 512" xml:space="preserve">
<g>
	<g>
		<polygon style="fill:#A3AAAF;" points="52.068,507.661 86.78,507.661 86.78,125.831 52.068,125.831 		"/>
		<polygon style="fill:#A3AAAF;" points="416.542,507.661 451.254,507.661 451.254,125.831 416.542,125.831 		"/>
	</g>
	<g>
		<path style="fill:#E0E0E0;" d="M477.288,221.288H364.475c-4.79,0-8.678-3.888-8.678-8.678s3.888-8.678,8.678-8.678h112.814
			c4.799,0,8.678,3.888,8.678,8.678S482.087,221.288,477.288,221.288"/>
		<path style="fill:#E0E0E0;" d="M138.847,221.288H26.034c-4.79,0-8.678-3.888-8.678-8.678s3.888-8.678,8.678-8.678h112.814
			c4.79,0,8.678,3.888,8.678,8.678S143.638,221.288,138.847,221.288"/>
	</g>
	<polygon style="fill:#ECE8D8;" points="138.847,229.966 364.475,229.966 364.475,195.254 138.847,195.254 	"/>
	<path style="fill:#9E5A23;" d="M182.237,360.136c-4.79,0-8.678-3.888-8.678-8.678V195.254c0-4.79,3.888-8.678,8.678-8.678
		s8.678,3.888,8.678,8.678v156.203C190.915,356.248,187.028,360.136,182.237,360.136"/>
	<polygon style="fill:#E15649;" points="121.492,403.525 208.271,403.525 208.271,351.458 121.492,351.458 	"/>
	<polygon style="fill:#BC342E;" points="208.271,403.525 295.051,403.525 295.051,351.458 208.271,351.458 	"/>
	<polygon style="fill:#A52525;" points="164.881,455.593 251.661,455.593 251.661,403.525 164.881,403.525 	"/>
	<polygon style="fill:#BC342E;" points="121.492,455.593 164.881,455.593 164.881,403.525 121.492,403.525 	"/>
	<polygon style="fill:#E15649;" points="251.661,455.593 338.441,455.593 338.441,403.525 251.661,403.525 	"/>
	<polygon style="fill:#BC342E;" points="338.441,455.593 381.831,455.593 381.831,403.525 338.441,403.525 	"/>
	<polygon style="fill:#E15649;" points="121.492,507.661 208.271,507.661 208.271,455.593 121.492,455.593 	"/>
	<polygon style="fill:#BC342E;" points="208.271,507.661 295.051,507.661 295.051,455.593 208.271,455.593 	"/>
	<g>
		<polygon style="fill:#A52525;" points="295.051,507.661 381.831,507.661 381.831,455.593 295.051,455.593 		"/>
		<polygon style="fill:#A52525;" points="295.051,403.525 381.831,403.525 381.831,351.458 295.051,351.458 		"/>
	</g>
	<polygon style="fill:#9E5A23;" points="503.322,125.831 0,125.831 34.712,4.339 468.61,4.339 	"/>
	<g>
		<path style="fill:#E0E0E0;" d="M477.288,256c-4.799,0-8.678-3.888-8.678-8.678V212.61c0-4.79,3.879-8.678,8.678-8.678
			c4.799,0,8.678,3.888,8.678,8.678v34.712C485.966,252.112,482.087,256,477.288,256"/>
		<path style="fill:#E0E0E0;" d="M503.322,256h-26.034c-4.799,0-8.678-3.888-8.678-8.678s3.879-8.678,8.678-8.678h26.034
			c4.799,0,8.678,3.888,8.678,8.678S508.121,256,503.322,256"/>
	</g>
	<g>
		<path style="fill:#9E5A23;" d="M216.949,238.644c-4.79,0-8.678-3.888-8.678-8.678v-34.712c0-4.79,3.888-8.678,8.678-8.678
			s8.678,3.888,8.678,8.678v34.712C225.627,234.756,221.739,238.644,216.949,238.644"/>
		<path style="fill:#9E5A23;" d="M251.661,238.644c-4.79,0-8.678-3.888-8.678-8.678v-34.712c0-4.79,3.888-8.678,8.678-8.678
			c4.79,0,8.678,3.888,8.678,8.678v34.712C260.339,234.756,256.451,238.644,251.661,238.644"/>
	</g>
</g>
</svg>